<svg xmlns="http://www.w3.org/2000/svg" viewBox="0 0 256 256" fill="none">
  <defs>
    <linearGradient id="cmdsGradient" x1="0%" y1="50%" x2="100%" y2="50%">
      <stop offset="0%" stop-color="#A7D5FF"/>
      <stop offset="100%" stop-color="#2563EB"/>
    </linearGradient>
    <linearGradient id="boxGrad" x1="0%" y1="50%" x2="100%" y2="50%">
      <stop offset="0%" stop-color="#A7D5FF"/>
      <stop offset="100%" stop-color="#2563EB"/>
    </linearGradient>
    <linearGradient id="gearGrad" x1="0%" y1="50%" x2="100%" y2="50%">
      <stop offset="0%" stop-color="#A7D5FF"/>
      <stop offset="100%" stop-color="#2563EB"/>
    </linearGradient>
  </defs>
  <path d="M128 24 V80" stroke="url(#boxGrad)" stroke-width="14" stroke-linecap="round"/>
  <path d="M96 58 L128 24 L160 58" stroke="url(#boxGrad)" stroke-width="14" stroke-linecap="round" stroke-linejoin="round" fill="none"/>
  <path d="M128 92 L40 144 L128 194 L216 144 Z" stroke="url(#boxGrad)" stroke-width="14" stroke-linejoin="round"/>
  <path d="M40 144 V196 L128 248 V194" stroke="url(#boxGrad)" stroke-width="14" stroke-linejoin="round"/>
  <path d="M216 144 V196 L128 248" stroke="url(#boxGrad)" stroke-width="14" stroke-linejoin="round"/>
  <path d="M128 194 V248" stroke="url(#boxGrad)" stroke-width="14" stroke-linecap="round"/>
  <g transform="translate(128,143) scale(3) translate(-12,-12)">
    <path d="M19.4 13.5 C19.5 13 19.5 12.5 19.5 12 C19.5 11.5 19.5 11 19.4 10.5 L21 9.3 L19.4 6.5 L17.5 7.3 C16.8 6.7 16.1 6.3 15.2 6 L15 4 H9 L8.8 6 C7.9 6.3 7.2 6.7 6.5 7.3 L4.6 6.5 L3 9.3 L4.6 10.5 C4.5 11 4.5 11.5 4.5 12 C4.5 12.5 4.5 13 4.6 13.5 L3 14.7 L4.6 17.5 L6.5 16.7 C7.2 17.3 7.9 17.7 8.8 18 L9 20 H15 L15.2 18 C16.1 17.7 16.8 17.3 17.5 16.7 L19.4 17.5 L21 14.7 Z"
          stroke="url(#gearGrad)" stroke-width="2.3" stroke-linejoin="round" stroke-linecap="round" fill="none"/>
    <circle cx="12" cy="12" r="3" stroke="url(#gearGrad)" stroke-width="2.3" fill="none"/>
  </g>
</svg>
