<svg width="560" height="170" viewBox="0 0 560 170" xmlns="http://www.w3.org/2000/svg" role="img" aria-label="Rocky Linux, Samba, and Windows icon">
  <defs>
    <linearGradient id="cmdsBlueGradient" x1="20" y1="14" x2="540" y2="156" gradientUnits="userSpaceOnUse">
      <stop offset="0%" stop-color="#B9DFFF"/>
      <stop offset="45%" stop-color="#6FAEFF"/>
      <stop offset="100%" stop-color="#2F6BFF"/>
    </linearGradient>
    <style>
      .divider { stroke: url(#cmdsBlueGradient); stroke-width: 4; stroke-linecap: round; }
    </style>
  </defs>
  <path d="M134.11 120.84 L108.58 95.3 L68.26 135.62 L76.32 138.76 L85.28 140.55 L98.27 140.55 L98.72 140.1 L103.65 139.66 L112.61 136.97 L120.67 132.94 L128.74 127.11 L134.11 121.74 Z M41.82 110.54 L44.96 115.91 L49.44 121.74 L52.13 123.98 L108.58 67.53 L144.86 102.92 L147.55 91.27 L147.55 78.28 L147.1 77.83 L147.1 75.14 L145.76 69.32 L142.62 60.81 L139.94 55.88 L134.11 47.82 L128.74 42.44 L118.43 35.27 L107.23 30.79 L98.27 29 L85.28 29 L76.32 30.79 L65.12 35.27 L54.82 42.44 L49.44 47.82 L42.27 58.12 L37.79 69.32 L36 78.28 L36 91.27 L37.79 100.23 Z" fill="url(#cmdsBlueGradient)" fill-rule="evenodd"/>
  <line class="divider" x1="186" y1="32" x2="186" y2="138"/>
  <path d="M329.45 34.88 Q327.43 32 326.85 35.47 L326.73 36.24 Q326.15 39.71 322.63 39.71 L247.04 39.71 Q243.27 39.71 240.09 41.73 L239.39 42.19 Q236.21 44.21 236.21 47.98 L236.21 89.17 Q236.21 93.67 240.71 93.67 L308.92 93.67 Q311.37 93.67 313.1 95.41 L313.49 95.79 Q315.22 97.53 315.22 99.98 L315.22 105.55 Q315.22 107.81 313.78 109.54 L313.45 109.93 Q312.01 111.66 309.75 111.66 L240.97 111.66 Q237.49 111.66 237.2 108.19 L237.14 107.42 Q236.85 103.95 234.73 106.71 L225.22 119.06 Q224 120.65 225.22 122.24 L234.73 134.6 Q236.85 137.36 237.14 133.89 L237.2 133.12 Q237.49 129.65 240.97 129.65 L316.51 129.65 Q321.01 129.65 324.93 127.44 L327.36 126.08 Q331.28 123.87 331.62 119.38 L333.51 94.31 Q333.85 89.82 331.92 85.75 L330 81.68 Q328.07 77.61 323.57 77.49 L259.21 75.75 Q256.76 75.68 255.03 73.95 L254.64 73.56 Q252.91 71.83 252.91 69.38 L252.91 62.95 Q252.91 60.91 254.35 59.47 L254.68 59.14 Q256.12 57.7 258.16 57.7 L322.92 57.7 Q326.15 57.7 326.73 60.88 L327.07 62.79 Q327.43 64.76 328.67 63.19 L336.85 52.88 Q339.64 49.35 337.05 45.67 L329.45 34.88 Z" fill="url(#cmdsBlueGradient)" fill-rule="evenodd"/>
  <line class="divider" x1="366" y1="32" x2="366" y2="138"/>
  <path d="M458.83 87.92 L458.83 132 L519.55 140.55 L519.55 87.92 Z M408 87.02 L408 125.26 L453.43 131.55 L453.43 87.47 Z M453.43 38.45 L408 44.74 L408 82.53 L453.43 82.53 Z M519.55 29 L458.83 37.55 L458.83 82.08 L519.55 81.63 Z" fill="url(#cmdsBlueGradient)" fill-rule="evenodd"/>
</svg>
